<?xml version="1.0" encoding="UTF-8" standalone="no"?>
<svg
   version="1.1"
   id="svg25"
   width="233.90067"
   height="103.52813"
   viewBox="0 0 233.90066 103.52813"
   sodipodi:docname="mql-dark.svg"
   inkscape:version="1.4.3 (0d15f75042, 2025-12-25)"
   xmlns:inkscape="http://www.inkscape.org/namespaces/inkscape"
   xmlns:sodipodi="http://sodipodi.sourceforge.net/DTD/sodipodi-0.dtd"
   xmlns="http://www.w3.org/2000/svg"
   xmlns:svg="http://www.w3.org/2000/svg">
  <sodipodi:namedview
     id="namedview1"
     pagecolor="#505050"
     bordercolor="#eeeeee"
     borderopacity="1"
     inkscape:showpageshadow="0"
     inkscape:pageopacity="0"
     inkscape:pagecheckerboard="0"
     inkscape:deskcolor="#d1d1d1"
     inkscape:zoom="2"
     inkscape:cx="136.5"
     inkscape:cy="4.5"
     inkscape:window-width="1920"
     inkscape:window-height="1062"
     inkscape:window-x="0"
     inkscape:window-y="18"
     inkscape:window-maximized="1"
     inkscape:current-layer="svg25" />
  <defs
     id="defs29" />
  <path
     d="m 203.09999,43.086933 c 0,-5.806134 -4.66,-10.137467 -9.892,-10.137467 -5.396,0 -9.89066,4.496933 -9.89066,10.137467 0,5.640666 4.49466,10.056266 9.89066,10.056266 4.98667,0 9.892,-4.252 9.892,-10.056266 z M 203.42666,23.9552 h 10.70933 V 80.856265 H 203.42666 V 57.393199 c -2.69733,3.925066 -7.848,5.7224 -12.26133,5.7224 -9.81067,0 -18.724,-7.766667 -18.724,-20.109866 0,-12.182267 8.91333,-20.030667 18.724,-20.030667 4.24933,0 9.564,1.799467 12.26133,5.640534 v -4.6604"
     style="fill:#ffffff;fill-opacity:1;fill-rule:nonzero;stroke:none;stroke-width:0.133333"
     id="path37" />
  <path
     d="M 0,35.604133 C 0,55.268266 15.940666,71.208798 35.604132,71.208798 V 0 C 15.940666,0 0,15.940667 0,35.604133"
     style="fill:#4bbf7d;fill-opacity:1;fill-rule:nonzero;stroke:none;stroke-width:0.133333"
     id="path51" />
  <path
     d="m 41.491732,0 v 67.923999 c 0,19.663466 15.940533,35.604131 35.604133,35.604131 V 0 H 41.491732"
     style="fill:#4bbf7d;fill-opacity:1;fill-rule:nonzero;stroke:none;stroke-width:0.133333"
     id="path53" />
  <path
     class="cls-1"
     d="m 116.70286,23.778477 v 0 4.557937 c 2.35027,-3.34714 6.0536,-5.341613 10.68285,-5.341613 5.76835,0 9.68561,2.350279 11.75064,6.481097 2.42161,-3.988195 6.7656,-6.481097 12.03591,-6.481097 9.75692,0 14.67067,5.982667 14.67067,15.596969 V 62.235688 H 155.73019 V 40.015749 c 0,-5.19899 -2.13635,-8.403507 -7.12178,-8.403507 -4.41569,0 -7.33533,2.991334 -7.33533,9.044561 v 21.578885 h -10.0418 V 39.731254 c 0,-5.127678 -2.13635,-8.119012 -6.90821,-8.119012 -4.62926,0 -7.5489,3.062646 -7.5489,9.258496 v 21.36495 H 106.875 V 33.60633 c 0,-5.427774 4.40007,-9.827853 9.82786,-9.827853 z"
     id="path3"
     style="fill:#ffffff;stroke-width:1.71197" />
  <path
     d="M 233.90066,62.376131 H 223.19133 V 5.4750657 h 10.70933 V 62.376131"
     style="fill:#ffffff;fill-opacity:1;fill-rule:nonzero;stroke:none;stroke-width:0.133333"
     id="path1"
     sodipodi:nodetypes="ccccc" />
</svg>
