<?xml version="1.0" encoding="UTF-8" standalone="no"?>
<svg
   version="1.1"
   id="svg25"
   width="399.26666"
   height="103.53333"
   viewBox="0 0 399.26666 103.53333"
   xmlns="http://www.w3.org/2000/svg"
   xmlns:svg="http://www.w3.org/2000/svg">
  <defs
     id="defs29" />
  <g
     id="g33"
     transform="matrix(1.3333333,0,0,-1.3333333,0,103.53333)">
    <g
       id="g35"
       transform="scale(0.1)">
      <path
         d="m 1673.25,453.309 c 0,43.546 -34.95,76.031 -74.19,76.031 -40.47,0 -74.18,-33.727 -74.18,-76.031 0,-42.305 33.71,-75.422 74.18,-75.422 37.4,0 74.19,31.89 74.19,75.422 z m 2.45,143.488 h 80.32 V 170.039 h -80.32 v 175.973 c -20.23,-29.438 -58.86,-42.918 -91.96,-42.918 -73.58,0 -140.43,58.25 -140.43,150.824 0,91.367 66.85,150.23 140.43,150.23 31.87,0 71.73,-13.496 91.96,-42.304 v 34.953"
         style="fill:#1e1b1a;fill-opacity:1;fill-rule:nonzero;stroke:none"
         id="path37" />
      <path
         d="m 1998.16,596.797 h 80.32 V 310.445 h -80.32 v 46.594 c -12.27,-37.402 -57.64,-53.945 -85.85,-53.945 -74.79,0 -114.03,50.269 -113.42,136.121 v 157.582 h 80.32 V 443.504 c 0,-44.77 26.97,-65.617 54.57,-65.617 28.82,0 64.38,15.945 64.38,67.457 v 151.453"
         style="fill:#1e1b1a;fill-opacity:1;fill-rule:nonzero;stroke:none"
         id="path39" />
      <path
         d="m 2344.06,479.684 c -2.45,33.711 -30.05,55.171 -66.23,55.171 -33.1,0 -61.32,-16.542 -69.89,-55.171 z m 79.09,-52.125 h -215.21 c 8.57,-33.727 35.56,-53.348 73.56,-53.348 29.44,0 57.64,13.496 75.42,33.727 l 46.61,-47.204 c -26.99,-36.179 -76.64,-57.64 -126.93,-57.64 -88.28,0 -152.68,61.926 -152.68,150.215 0,92.589 70.52,150.839 152.07,150.839 82.16,0 149,-58.25 149,-145.925 0,-7.981 -0.61,-17.782 -1.84,-30.664"
         style="fill:#1e1b1a;fill-opacity:1;fill-rule:nonzero;stroke:none"
         id="path41" />
      <path
         d="m 2676.17,594.941 -18.38,-76.628 c -17.17,9.191 -31.27,10.414 -41.09,10.414 -41.08,0 -69.28,-38.629 -69.28,-120.176 v -98.106 h -80.32 v 206.641 c 0,44.023 35.69,79.711 79.71,79.711 v 0 -61.332 c 15.94,47.836 48.43,68.683 84,68.683 15.33,0 32.5,-2.453 45.36,-9.207"
         style="fill:#1e1b1a;fill-opacity:1;fill-rule:nonzero;stroke:none"
         id="path43" />
      <path
         d="m 2908.08,596.797 h 86.45 L 2817.94,170.039 h -85.83 l 68.05,167.383 -113.44,259.375 h 88.3 l 67.44,-165.563 65.62,165.563"
         style="fill:#1e1b1a;fill-opacity:1;fill-rule:nonzero;stroke:none"
         id="path45" />
      <path
         d="m 801.082,453.762 c 0,90.754 73.582,149.617 156.969,149.617 52.119,0 93.819,-23.91 120.789,-61.316 l -60.7,-42.305 c -12.88,17.785 -36.792,28.812 -59.476,28.812 -45.367,0 -76.035,-33.117 -76.035,-74.808 0,-42.305 30.668,-76.645 76.035,-76.645 22.684,0 46.596,11.043 59.476,28.824 l 60.7,-42.304 c -26.97,-37.403 -68.67,-61.313 -120.789,-61.313 -83.387,0 -156.969,60.699 -156.969,151.438"
         style="fill:#1e1b1a;fill-opacity:1;fill-rule:nonzero;stroke:none"
         id="path47" />
      <path
         d="m 1204.61,600.496 v 0 -36.617 c 18.85,26.391 49.01,42.543 85.09,42.543 68.93,0 112.56,-45.242 112.56,-121.176 v -175.57 h -75.94 v 164.262 c 0,41.468 -19.93,67.32 -59.24,67.32 -35,0 -61.93,-25.852 -61.93,-71.09 V 309.676 h -74.87 v 216.5 c 0,41.047 33.28,74.32 74.33,74.32"
         style="fill:#1e1b1a;fill-opacity:1;fill-rule:nonzero;stroke:none"
         id="path49" />
      <path
         d="M 0,509.43 C 0,361.949 119.555,242.395 267.031,242.395 V 776.461 C 119.555,776.461 0,656.906 0,509.43"
         style="fill:#4bbf7d;fill-opacity:1;fill-rule:nonzero;stroke:none"
         id="path51" />
      <path
         d="M 311.188,776.461 V 267.031 C 311.188,119.555 430.742,0 578.219,0 V 776.461 H 311.188"
         style="fill:#4bbf7d;fill-opacity:1;fill-rule:nonzero;stroke:none"
         id="path53" />
    </g>
  </g>
</svg>
